<mxfile host="app.diagrams.net" modified="2023-09-16T17:55:30.854Z" agent="Mozilla/5.0 (Windows NT 10.0; Win64; x64) AppleWebKit/537.36 (KHTML, like Gecko) Chrome/116.0.0.0 Safari/537.36" etag="WqkC1LnuAVXgByYmsbd-" version="21.7.5" type="github">
  <diagram id="R2lEEEUBdFMjLlhIrx00" name="Page-1">
    <mxGraphModel dx="3804" dy="1150" grid="1" gridSize="10" guides="1" tooltips="1" connect="1" arrows="1" fold="1" page="1" pageScale="1" pageWidth="850" pageHeight="1100" math="0" shadow="0" extFonts="Permanent Marker^https://fonts.googleapis.com/css?family=Permanent+Marker">
      <root>
        <mxCell id="0" />
        <mxCell id="1" parent="0" />
        <mxCell id="oWVrdrfTGMAV1-bHObDd-8" value="Забег" style="swimlane;whiteSpace=wrap;html=1;" vertex="1" parent="1">
          <mxGeometry x="-560" y="40" width="200" height="330" as="geometry" />
        </mxCell>
        <mxCell id="oWVrdrfTGMAV1-bHObDd-9" value="Номер" style="text;html=1;align=center;verticalAlign=middle;resizable=0;points=[];autosize=1;strokeColor=none;fillColor=none;" vertex="1" parent="oWVrdrfTGMAV1-bHObDd-8">
          <mxGeometry y="40" width="60" height="30" as="geometry" />
        </mxCell>
        <mxCell id="oWVrdrfTGMAV1-bHObDd-10" value="Дата" style="text;html=1;align=center;verticalAlign=middle;resizable=0;points=[];autosize=1;strokeColor=none;fillColor=none;" vertex="1" parent="oWVrdrfTGMAV1-bHObDd-8">
          <mxGeometry y="80" width="50" height="30" as="geometry" />
        </mxCell>
        <mxCell id="oWVrdrfTGMAV1-bHObDd-11" value="Дистанция" style="text;html=1;align=center;verticalAlign=middle;resizable=0;points=[];autosize=1;strokeColor=none;fillColor=none;" vertex="1" parent="oWVrdrfTGMAV1-bHObDd-8">
          <mxGeometry y="170" width="80" height="30" as="geometry" />
        </mxCell>
        <mxCell id="oWVrdrfTGMAV1-bHObDd-12" value="Время старта&lt;br&gt;" style="text;html=1;align=center;verticalAlign=middle;resizable=0;points=[];autosize=1;strokeColor=none;fillColor=none;" vertex="1" parent="oWVrdrfTGMAV1-bHObDd-8">
          <mxGeometry y="120" width="100" height="30" as="geometry" />
        </mxCell>
        <mxCell id="oWVrdrfTGMAV1-bHObDd-13" value="Участник" style="swimlane;whiteSpace=wrap;html=1;" vertex="1" parent="1">
          <mxGeometry x="-840" y="40" width="200" height="570" as="geometry" />
        </mxCell>
        <mxCell id="oWVrdrfTGMAV1-bHObDd-5" value="id" style="text;html=1;align=center;verticalAlign=middle;resizable=0;points=[];autosize=1;strokeColor=none;fillColor=none;" vertex="1" parent="oWVrdrfTGMAV1-bHObDd-13">
          <mxGeometry y="40" width="30" height="30" as="geometry" />
        </mxCell>
        <mxCell id="oWVrdrfTGMAV1-bHObDd-4" value="Фамилия" style="text;html=1;align=center;verticalAlign=middle;resizable=0;points=[];autosize=1;strokeColor=none;fillColor=none;" vertex="1" parent="oWVrdrfTGMAV1-bHObDd-13">
          <mxGeometry y="80" width="70" height="30" as="geometry" />
        </mxCell>
        <mxCell id="oWVrdrfTGMAV1-bHObDd-2" value="Имя&lt;br&gt;" style="text;html=1;align=center;verticalAlign=middle;resizable=0;points=[];autosize=1;strokeColor=none;fillColor=none;" vertex="1" parent="oWVrdrfTGMAV1-bHObDd-13">
          <mxGeometry y="120" width="50" height="30" as="geometry" />
        </mxCell>
        <mxCell id="oWVrdrfTGMAV1-bHObDd-3" value="Отчество" style="text;html=1;align=center;verticalAlign=middle;resizable=0;points=[];autosize=1;strokeColor=none;fillColor=none;" vertex="1" parent="oWVrdrfTGMAV1-bHObDd-13">
          <mxGeometry y="160" width="80" height="30" as="geometry" />
        </mxCell>
        <mxCell id="oWVrdrfTGMAV1-bHObDd-6" value="Возраст" style="text;html=1;align=center;verticalAlign=middle;resizable=0;points=[];autosize=1;strokeColor=none;fillColor=none;" vertex="1" parent="oWVrdrfTGMAV1-bHObDd-13">
          <mxGeometry y="200" width="70" height="30" as="geometry" />
        </mxCell>
        <mxCell id="oWVrdrfTGMAV1-bHObDd-21" value="Количество принятых участий&amp;nbsp;&lt;br&gt;" style="text;html=1;align=center;verticalAlign=middle;resizable=0;points=[];autosize=1;strokeColor=none;fillColor=none;" vertex="1" parent="oWVrdrfTGMAV1-bHObDd-13">
          <mxGeometry y="240" width="190" height="30" as="geometry" />
        </mxCell>
        <mxCell id="oWVrdrfTGMAV1-bHObDd-15" value="Результат" style="swimlane;whiteSpace=wrap;html=1;" vertex="1" parent="1">
          <mxGeometry x="-280" y="40" width="200" height="430" as="geometry" />
        </mxCell>
        <mxCell id="oWVrdrfTGMAV1-bHObDd-14" value="Фамилия&lt;br&gt;" style="text;html=1;align=center;verticalAlign=middle;resizable=0;points=[];autosize=1;strokeColor=none;fillColor=none;" vertex="1" parent="oWVrdrfTGMAV1-bHObDd-15">
          <mxGeometry y="40" width="70" height="30" as="geometry" />
        </mxCell>
        <mxCell id="oWVrdrfTGMAV1-bHObDd-16" value="Имя" style="text;html=1;align=center;verticalAlign=middle;resizable=0;points=[];autosize=1;strokeColor=none;fillColor=none;" vertex="1" parent="oWVrdrfTGMAV1-bHObDd-15">
          <mxGeometry y="80" width="50" height="30" as="geometry" />
        </mxCell>
        <mxCell id="oWVrdrfTGMAV1-bHObDd-17" value="Отчество" style="text;html=1;align=center;verticalAlign=middle;resizable=0;points=[];autosize=1;strokeColor=none;fillColor=none;" vertex="1" parent="oWVrdrfTGMAV1-bHObDd-15">
          <mxGeometry y="120" width="80" height="30" as="geometry" />
        </mxCell>
        <mxCell id="oWVrdrfTGMAV1-bHObDd-19" value="Время" style="text;html=1;align=center;verticalAlign=middle;resizable=0;points=[];autosize=1;strokeColor=none;fillColor=none;" vertex="1" parent="oWVrdrfTGMAV1-bHObDd-15">
          <mxGeometry y="160" width="60" height="30" as="geometry" />
        </mxCell>
        <mxCell id="oWVrdrfTGMAV1-bHObDd-20" value="Позиция" style="text;html=1;align=center;verticalAlign=middle;resizable=0;points=[];autosize=1;strokeColor=none;fillColor=none;" vertex="1" parent="oWVrdrfTGMAV1-bHObDd-15">
          <mxGeometry y="200" width="70" height="30" as="geometry" />
        </mxCell>
      </root>
    </mxGraphModel>
  </diagram>
</mxfile>
